<svg width="200" height="200" viewBox="0 0 200 200" xmlns="http://www.w3.org/2000/svg">
  <defs>
    <linearGradient id="logoGradient" x1="0%" y1="0%" x2="100%" y2="100%">
      <stop offset="0%" style="stop-color:#667eea;stop-opacity:1" />
      <stop offset="100%" style="stop-color:#764ba2;stop-opacity:1" />
    </linearGradient>
    <linearGradient id="bgGradient" x1="0%" y1="0%" x2="100%" y2="100%">
      <stop offset="0%" style="stop-color:#f5f7fa;stop-opacity:1" />
      <stop offset="100%" style="stop-color:#c3cfe2;stop-opacity:1" />
    </linearGradient>
    <filter id="shadow" x="-50%" y="-50%" width="200%" height="200%">
      <feDropShadow dx="0" dy="5" stdDeviation="10" flood-color="#667eea" flood-opacity="0.3"/>
    </filter>
  </defs>
  
  <!-- Background circle -->
  <circle cx="100" cy="100" r="90" fill="url(#bgGradient)" stroke="none"/>
  
  <!-- Main logo container -->
  <rect x="40" y="40" width="120" height="120" rx="25" fill="url(#logoGradient)" filter="url(#shadow)"/>
  
  <!-- Letter B -->
  <path d="M70 70 L70 130 L105 130 Q125 130 125 115 Q125 100 110 100 Q125 100 125 85 Q125 70 105 70 Z
           M85 85 L105 85 Q110 85 110 90 Q110 95 105 95 L85 95 Z
           M85 105 L105 105 Q110 105 110 110 Q110 115 105 115 L85 115 Z" 
        fill="white" stroke="none"/>
  
  <!-- Decorative elements -->
  <circle cx="160" cy="60" r="8" fill="rgba(255,255,255,0.3)" opacity="0.8">
    <animate attributeName="opacity" values="0.3;1;0.3" dur="2s" repeatCount="indefinite"/>
  </circle>
  <circle cx="40" cy="160" r="6" fill="rgba(255,255,255,0.3)" opacity="0.6">
    <animate attributeName="opacity" values="0.6;1;0.6" dur="3s" repeatCount="indefinite"/>
  </circle>
  
  <!-- AI indicators -->
  <rect x="150" y="150" width="15" height="15" rx="3" fill="rgba(118,75,162,0.5)" opacity="0.7">
    <animateTransform attributeName="transform" type="rotate" values="0 157.5 157.5;360 157.5 157.5" dur="4s" repeatCount="indefinite"/>
  </rect>
</svg>